<svg width="389" height="2058" viewBox="0 0 389 2058" fill="none" xmlns="http://www.w3.org/2000/svg">
<path d="M93.8938 2058C65.0833 2058 19.5788 2025.47 1 2025.47V1059H389V2042.93C360.863 2042.93 340.668 2020.28 290.586 2020.28C271.804 2020.28 221.678 2032.58 188.942 2031.49C156.206 2030.39 124.373 2058 93.8938 2058Z" fill="#E1DCD0"/>
<path d="M93.1332 1306C64.2484 1306 18.6266 1285.42 0 1285.42V388H389V1296.47C360.79 1296.47 340.544 1282.13 290.333 1282.13C271.501 1282.13 221.246 1289.91 188.426 1289.22C155.606 1288.53 123.691 1306 93.1332 1306Z" fill="#F8F0DC"/>
<path d="M93.6731 515.559C64.7883 515.559 18.6266 540.304 0 540.304V0H389V556.434C360.79 556.434 340.544 535.507 290.333 535.507C271.501 535.507 221.246 546.87 188.426 545.859C155.606 544.848 124.231 515.559 93.6731 515.559Z" fill="#FFD058"/>
</svg>
