<svg width="1443" height="3320" viewBox="0 0 1443 3320" fill="none" xmlns="http://www.w3.org/2000/svg">
<path d="M347 3320C240 3320 71 3256 2 3256V1810.31L1443 1799V3290.35C1338.5 3290.35 1263.5 3245.78 1077.5 3245.78C1007.74 3245.78 821.578 3269.98 700 3267.83C578.422 3265.68 460.197 3320 347 3320Z" fill="#E1DCD0"/>
<path d="M345 2231C238 2231 69 2171.5 0 2171.5V827.513L1441 817V2203.44C1336.5 2203.44 1261.5 2162 1075.5 2162C1005.74 2162 819.578 2184.5 698 2182.5C576.422 2180.5 458.197 2231 345 2231Z" fill="#F8F0DC"/>
<path d="M348 1084C241 1084 70 1133 1 1133V807.513L1442 797V1164.94C1337.5 1164.94 1262.5 1123.5 1076.5 1123.5C1006.74 1123.5 820.578 1146 699 1144C577.422 1142 461.197 1084 348 1084Z" fill="#FFD058"/>
<rect x="1" width="1440" height="1062" fill="#FFD058"/>
</svg>
