<svg width="42" height="42" viewBox="0 0 42 42" fill="none" xmlns="http://www.w3.org/2000/svg">
<circle cx="21" cy="21" r="20" stroke="#007C89" stroke-width="2"/>
<path d="M15.2929 20.2929C14.9024 20.6834 14.9024 21.3166 15.2929 21.7071L21.6569 28.0711C22.0474 28.4616 22.6805 28.4616 23.0711 28.0711C23.4616 27.6805 23.4616 27.0474 23.0711 26.6569L17.4142 21L23.0711 15.3431C23.4616 14.9526 23.4616 14.3195 23.0711 13.9289C22.6805 13.5384 22.0474 13.5384 21.6569 13.9289L15.2929 20.2929ZM16.5 22C17.0523 22 17.5 21.5523 17.5 21C17.5 20.4477 17.0523 20 16.5 20V22ZM16 22H16.5V20H16V22Z" fill="#007C89"/>
</svg>
