<svg width="406" height="241" viewBox="0 0 406 241" fill="none" xmlns="http://www.w3.org/2000/svg">
<path d="M0 17C0 7.61116 7.61116 0 17 0H389C398.389 0 406 7.61116 406 17V224C406 233.389 398.389 241 389 241H17C7.61115 241 0 233.389 0 224V17Z" fill="#FFD058"/>
<path d="M0 17C0 7.61116 7.61116 0 17 0H389C398.389 0 406 7.61116 406 17V224C406 233.389 398.389 241 389 241H17C7.61115 241 0 233.389 0 224V17Z" fill="url(#paint0_linear_126_601)" fill-opacity="0.2"/>
<path fill-rule="evenodd" clip-rule="evenodd" d="M379.746 108.526C379.259 104.889 378.318 101.517 376.984 98.5128C376.648 97.6924 376.183 96.8655 375.953 96.6006C375.348 95.9029 374.121 95.7996 373.354 96.3616C372.794 96.7557 372.312 97.7118 372.312 98.4482C372.312 98.8617 372.827 100.063 373.124 100.729C374.967 105.025 375.684 108.494 375.684 113.113C375.684 117.88 374.872 121.724 372.962 125.968C372.469 127.028 372.267 127.564 372.396 128.229C372.547 129.121 373.197 129.987 373.892 130.232C374.211 130.355 374.508 130.355 374.609 130.355L374.777 130.4L374.928 130.316C375.813 130.316 376.43 129.198 377.264 127.151C378.592 123.966 379.449 120.613 379.886 116.885C380.066 114.915 380.043 110.748 379.746 108.526ZM369.433 105.324C368.968 103.703 367.674 100.447 367.12 99.8656C366.705 99.4198 366.145 99.1743 365.478 99.2583C364.851 99.3229 364.29 99.6524 363.926 100.208C363.226 101.397 363.456 102.094 364.234 103.968C365.383 106.629 365.831 108.451 366.083 111.474C366.386 114.969 365.781 118.613 364.341 122.017C363.965 122.864 363.646 123.71 363.556 123.968C363.405 124.485 363.461 125.086 363.708 125.641C363.982 126.275 364.47 126.766 365.007 126.959C365.232 127.037 365.439 127.076 365.64 127.076C367.097 127.076 367.96 125.073 368.66 123.148C370.811 117.437 371.08 111.274 369.433 105.331V105.324ZM356.543 102.514C355.86 102.514 355.557 102.707 355.098 103.185C354.05 104.342 354.28 105.227 355.092 107.126C356.835 111.164 356.812 115.156 355.025 119.323C354.498 120.57 354.33 121.086 354.398 121.745C354.56 122.54 355.087 123.276 355.714 123.574C355.899 123.664 356.258 123.774 356.566 123.774C356.65 123.774 356.717 123.767 356.79 123.748C357.809 123.561 358.274 122.85 358.986 121.216C360.213 118.328 360.65 116.215 360.65 113.153C360.65 110.098 360.185 107.759 359.059 105.111C358.381 103.431 357.781 102.52 356.543 102.514ZM347.828 105.598H347.816C347.217 105.721 346.679 106.147 346.343 106.78C346.035 107.362 345.94 108.034 346.08 108.551C346.119 108.828 346.276 109.151 346.534 109.688L346.668 109.972C347.262 111.102 347.38 111.606 347.38 113.118C347.38 114.63 347.262 115.133 346.674 116.251C346.102 117.298 345.856 117.982 346.085 118.777C346.253 119.475 346.797 120.205 347.34 120.457C347.553 120.56 347.833 120.657 348.158 120.657C348.78 120.657 349.564 120.295 350.304 118.964C352.259 115.463 352.259 110.766 350.298 107.259C349.727 106.27 349.043 105.385 347.828 105.598Z" fill="white"/>
<path d="M368.063 24.4717C366.571 23.9283 364.995 23.6556 363.407 23.6665C358.274 23.6665 354.648 26.2524 354.623 29.9644C354.591 32.6915 357.199 34.2283 359.172 35.1395C361.197 36.0763 361.874 36.6666 361.867 37.504C361.854 38.7777 360.25 39.3552 358.758 39.3552C356.708 39.3552 355.589 39.0697 353.866 38.3542L353.227 38.0558L352.499 42.3293C353.747 42.8491 355.996 43.295 358.319 43.3335C363.776 43.3335 367.344 40.7637 367.386 36.8142C367.43 34.6357 366.019 32.9899 363.048 31.6295C361.242 30.7472 360.122 30.1569 360.122 29.2618C360.122 28.4693 361.081 27.6223 363.086 27.6223C364.421 27.59 365.747 27.8404 366.978 28.357L367.459 28.572L368.188 24.4429L368.063 24.4717ZM381.384 24.013H377.373C376.125 24.013 375.185 24.3562 374.64 25.5947L366.927 43.0672H372.384L373.475 40.2022L380.135 40.2086C380.293 40.8792 380.774 43.0672 380.774 43.0672H385.586L381.384 24.013ZM347.24 23.8525H352.441L349.188 42.9165H343.994L347.24 23.8461V23.8525ZM334.038 34.3598L334.577 37.0067L339.659 24.013H345.168L336.983 43.0416H331.488L326.996 26.9293C326.923 26.6636 326.752 26.4355 326.518 26.2909C324.899 25.4546 323.184 24.8199 321.41 24.4012L321.481 24.0001H329.851C330.987 24.045 331.901 24.4012 332.206 25.6139L334.035 34.3694L334.038 34.3598ZM374.967 36.3041L377.039 30.9718C377.014 31.0296 377.466 29.8714 377.729 29.1559L378.085 30.8018L379.288 36.3009H374.964L374.967 36.3041Z" fill="white"/>
<defs>
<linearGradient id="paint0_linear_126_601" x1="364" y1="22.5" x2="117" y2="170.5" gradientUnits="userSpaceOnUse">
<stop offset="0.173752" stop-color="#EAA800" stop-opacity="0"/>
<stop offset="1" stop-color="#EB3A02"/>
</linearGradient>
</defs>
</svg>
