<svg width="34" height="34" viewBox="0 0 34 34" fill="none" xmlns="http://www.w3.org/2000/svg">
<g clip-path="url(#clip0_16_188)">
<path d="M24.0833 4.95841C24.0833 4.77055 24.0087 4.59038 23.8759 4.45754C23.743 4.3247 23.5629 4.25008 23.375 4.25008H19.8333C18.0499 4.16124 16.3038 4.78188 14.9766 5.9764C13.6494 7.17091 12.8489 8.84219 12.75 10.6251V14.4501H9.20833C9.02047 14.4501 8.8403 14.5247 8.70747 14.6575C8.57463 14.7904 8.5 14.9705 8.5 15.1584V18.8417C8.5 19.0296 8.57463 19.2098 8.70747 19.3426C8.8403 19.4754 9.02047 19.5501 9.20833 19.5501H12.75V29.0417C12.75 29.2296 12.8246 29.4098 12.9575 29.5426C13.0903 29.6754 13.2705 29.7501 13.4583 29.7501H17.7083C17.8962 29.7501 18.0764 29.6754 18.2092 29.5426C18.342 29.4098 18.4167 29.2296 18.4167 29.0417V19.5501H22.1283C22.2859 19.5523 22.4396 19.502 22.5654 19.4071C22.6911 19.3122 22.7816 19.178 22.8225 19.0259L23.8425 15.3426C23.8707 15.2379 23.8745 15.1282 23.8536 15.0218C23.8327 14.9155 23.7876 14.8153 23.722 14.7291C23.6563 14.6429 23.5717 14.5729 23.4747 14.5245C23.3777 14.4762 23.2709 14.4507 23.1625 14.4501H18.4167V10.6251C18.4519 10.2744 18.6166 9.94948 18.8785 9.71372C19.1405 9.47796 19.4809 9.34831 19.8333 9.35008H23.375C23.5629 9.35008 23.743 9.27545 23.8759 9.14261C24.0087 9.00977 24.0833 8.8296 24.0833 8.64174V4.95841Z" fill="#403021"/>
</g>
<defs>
<clipPath id="clip0_16_188">
<rect width="34" height="34" fill="white"/>
</clipPath>
</defs>
</svg>
