<svg width="26" height="26" viewBox="0 0 26 26" fill="none" xmlns="http://www.w3.org/2000/svg">
<path d="M19.5772 0H6.42322C4.72024 0.0018281 3.08753 0.679145 1.88334 1.88334C0.679145 3.08753 0.0018281 4.72024 0 6.42322V19.5768C0.0018281 21.2798 0.679145 22.9125 1.88334 24.1167C3.08753 25.3209 4.72024 25.9982 6.42322 26H19.5772C21.2801 25.9982 22.9128 25.3208 24.1169 24.1166C25.3211 22.9124 25.9983 21.2797 26 19.5768V6.42322C25.9983 4.72027 25.3211 3.08756 24.1169 1.88336C22.9128 0.679158 21.2801 0.00182829 19.5772 0ZM23.532 19.5768C23.5308 20.6254 23.1138 21.6307 22.3724 22.3723C21.631 23.1138 20.6258 23.531 19.5772 23.5324H6.42322C5.37455 23.5311 4.3692 23.114 3.62772 22.3724C2.88623 21.6308 2.46915 20.6255 2.46797 19.5768V6.42322C2.46915 5.37455 2.88623 4.36916 3.62772 3.6276C4.3692 2.88604 5.37455 2.46885 6.42322 2.46756H19.5772C20.6258 2.46896 21.631 2.88619 22.3724 3.62774C23.1138 4.36929 23.5308 5.37462 23.532 6.42322V19.5768Z" fill="#403021"/>
<path d="M13.0004 6.80884C11.7759 6.80892 10.5789 7.1721 9.56085 7.85245C8.54276 8.5328 7.74928 9.49977 7.28074 10.6311C6.8122 11.7624 6.68965 13.0072 6.92859 14.2082C7.16752 15.4091 7.75721 16.5123 8.62309 17.3781C9.48897 18.2439 10.5921 18.8335 11.7931 19.0724C12.9941 19.3113 14.2389 19.1886 15.3702 18.72C16.5015 18.2514 17.4684 17.4579 18.1487 16.4397C18.829 15.4216 19.1921 14.2246 19.1921 13.0001C19.1902 11.3586 18.5373 9.78479 17.3765 8.62409C16.2158 7.46339 14.6419 6.81056 13.0004 6.80884ZM13.0004 16.7238C12.264 16.7237 11.5441 16.5052 10.9318 16.096C10.3195 15.6868 9.84224 15.1052 9.56047 14.4248C9.27869 13.7444 9.20501 12.9957 9.34874 12.2734C9.49246 11.5511 9.84714 10.8876 10.3679 10.3669C10.8887 9.84617 11.5522 9.49157 12.2745 9.34792C12.9968 9.20427 13.7455 9.27804 14.4259 9.55989C15.1063 9.84174 15.6878 10.319 16.097 10.9314C16.5061 11.5437 16.7245 12.2636 16.7245 13.0001C16.7235 13.9874 16.3309 14.9341 15.6327 15.6322C14.9344 16.3303 13.9878 16.7229 13.0004 16.7238Z" fill="#403021"/>
<path d="M19.445 4.90259C19.1181 4.90251 18.7986 4.99936 18.5268 5.18091C18.2549 5.36245 18.0431 5.62053 17.9179 5.9225C17.7928 6.22447 17.76 6.55677 17.8237 6.87738C17.8874 7.19798 18.0448 7.49249 18.2759 7.72365C18.507 7.95482 18.8015 8.11225 19.1221 8.17605C19.4426 8.23985 19.775 8.20715 20.077 8.08208C20.379 7.95701 20.6371 7.74519 20.8187 7.4734C21.0003 7.20162 21.0972 6.88209 21.0972 6.55521C21.0972 6.11698 20.9232 5.69669 20.6133 5.38677C20.3035 5.07686 19.8833 4.9027 19.445 4.90259Z" fill="#403021"/>
</svg>
