<svg width="56" height="30" viewBox="0 0 56 30" fill="none" xmlns="http://www.w3.org/2000/svg">
<path d="M2 13C0.89543 13 -9.65645e-08 13.8954 0 15C9.65645e-08 16.1046 0.895431 17 2 17L2 13ZM55.4142 16.4142C56.1953 15.6332 56.1953 14.3668 55.4142 13.5858L42.6863 0.857861C41.9052 0.0768121 40.6389 0.0768122 39.8579 0.857861C39.0768 1.63891 39.0768 2.90524 39.8579 3.68629L51.1716 15L39.8579 26.3137C39.0768 27.0948 39.0768 28.3611 39.8579 29.1421C40.6389 29.9232 41.9052 29.9232 42.6863 29.1421L55.4142 16.4142ZM2 17L54 17L54 13L2 13L2 17Z" fill="white"/>
</svg>
