<svg width="18" height="30" viewBox="0 0 18 30" fill="none" xmlns="http://www.w3.org/2000/svg">
<path d="M15 13C13.8954 13 13 13.8954 13 15C13 16.1046 13.8954 17 15 17V13ZM16.9142 16.4142C17.6953 15.6332 17.6953 14.3668 16.9142 13.5858L4.18629 0.857864C3.40524 0.0768158 2.13891 0.0768158 1.35786 0.857864C0.576816 1.63891 0.576816 2.90524 1.35786 3.68629L12.6716 15L1.35786 26.3137C0.576816 27.0948 0.576816 28.3611 1.35786 29.1421C2.13891 29.9232 3.40524 29.9232 4.18629 29.1421L16.9142 16.4142ZM15 17H15.5V13H15V17Z" fill="#050505"/>
</svg>
