<svg width="22" height="26" viewBox="0 0 22 26" fill="none" xmlns="http://www.w3.org/2000/svg">
<path d="M18.5671 2.66435C16.7774 0.946262 14.3007 0 11.5931 0C7.45729 0 4.91355 1.69534 3.50792 3.11747C1.77556 4.87009 0.782227 7.19725 0.782227 9.50233C0.782227 12.3965 1.99281 14.6179 4.02005 15.4443C4.15615 15.5001 4.2931 15.5282 4.42737 15.5282C4.85505 15.5282 5.19392 15.2483 5.31132 14.7994C5.37978 14.5419 5.53832 13.9066 5.60728 13.6308C5.75485 13.0862 5.63561 12.8242 5.31376 12.4449C4.72744 11.7511 4.45439 10.9308 4.45439 9.86308C4.45439 6.69173 6.81582 3.32126 11.1925 3.32126C14.6653 3.32126 16.8225 5.29503 16.8225 8.47223C16.8225 10.4772 16.3906 12.334 15.6062 13.7007C15.0611 14.6504 14.1026 15.7825 12.6312 15.7825C11.9949 15.7825 11.4233 15.5211 11.0626 15.0654C10.7219 14.6347 10.6096 14.0782 10.7467 13.4982C10.9014 12.8429 11.1125 12.1594 11.3168 11.4986C11.6894 10.2918 12.0416 9.15188 12.0416 8.24244C12.0416 6.6869 11.0853 5.64167 9.66217 5.64167C7.85354 5.64167 6.43659 7.47864 6.43659 9.82372C6.43659 10.9738 6.74224 11.8341 6.88062 12.1643C6.65276 13.1297 5.29863 18.869 5.04177 19.9513C4.89324 20.583 3.99857 25.573 5.47941 25.9709C7.14321 26.4179 8.63045 21.558 8.78183 21.0089C8.90452 20.5623 9.33377 18.8734 9.59682 17.8353C10.4 18.609 11.6933 19.132 12.9516 19.132C15.3239 19.132 17.4573 18.0645 18.959 16.1263C20.4153 14.2464 21.2174 11.6262 21.2174 8.74868C21.2173 6.49916 20.2513 4.28144 18.5671 2.66435Z" fill="#403021"/>
</svg>
