<svg width="26" height="24" viewBox="0 0 26 24" fill="none" xmlns="http://www.w3.org/2000/svg">
<path d="M11.5734 1.39057C12.0224 0.00860598 13.9776 0.00860994 14.4266 1.39058L16.2555 7.01925C16.4563 7.63729 17.0322 8.05573 17.682 8.05573H23.6004C25.0535 8.05573 25.6576 9.91515 24.4821 10.7693L19.694 14.248C19.1683 14.6299 18.9483 15.307 19.1491 15.925L20.978 21.5537C21.427 22.9357 19.8453 24.0848 18.6697 23.2307L13.8817 19.752C13.3559 19.3701 12.6441 19.3701 12.1183 19.752L7.33028 23.2307C6.15471 24.0849 4.57299 22.9357 5.02202 21.5537L6.85089 15.925C7.0517 15.307 6.83171 14.6299 6.30598 14.248L1.51794 10.7693C0.34237 9.91515 0.946536 8.05573 2.39962 8.05573H8.31796C8.9678 8.05573 9.54374 7.63729 9.74455 7.01925L11.5734 1.39057Z" fill="#FFDD64"/>
</svg>
