<svg width="114" height="114" viewBox="0 0 114 114" fill="none" xmlns="http://www.w3.org/2000/svg">
<circle cx="57" cy="57" r="57" fill="#007C89"/>
<path d="M84.9938 42.7539C84.9277 41.3926 84.2666 40.161 83.2751 39.2534C82.2836 38.3459 80.9616 37.8921 79.5735 38.0218C78.1853 38.0866 76.9294 38.7349 76.0701 39.7072L49.6297 68.8779L37.5332 58.1172C36.5417 57.2096 35.2197 56.7559 33.8316 56.8207C32.4435 56.8855 31.1875 57.4689 30.3282 58.4413C29.4028 59.4137 28.9401 60.7101 29.0062 62.0714C29.0723 63.4327 29.6672 64.6644 30.6587 65.5071L46.5891 79.7035C47.5145 80.5462 48.7704 81 50.0263 81H50.2907H50.3568C51.6789 80.9352 52.9348 80.3518 53.9263 79.3146L83.8039 46.3192C84.5971 45.3469 85.0599 44.0504 84.9938 42.7539Z" fill="#FFFBF2"/>
</svg>
