<svg width="71" height="71" viewBox="0 0 71 71" fill="none" xmlns="http://www.w3.org/2000/svg">
<circle cx="35.5" cy="35.5" r="35.5" fill="#007C89"/>
<path d="M52.9339 26.6275C52.8927 25.7796 52.481 25.0126 51.8635 24.4473C51.246 23.8821 50.4226 23.5995 49.5581 23.6803C48.6935 23.7206 47.9113 24.1244 47.3762 24.7299L30.9089 42.8977L23.3751 36.1958C22.7576 35.6306 21.9342 35.348 21.0697 35.3884C20.2052 35.4287 19.423 35.7921 18.8878 36.3977C18.3114 37.0033 18.0232 37.8107 18.0644 38.6585C18.1056 39.5064 18.4761 40.2735 19.0936 40.7983L29.0151 49.6399C29.5915 50.1648 30.3737 50.4474 31.1559 50.4474H31.3206H31.3617C32.1851 50.407 32.9673 50.0437 33.5848 49.3977L52.1928 28.848C52.6868 28.2424 52.975 27.4349 52.9339 26.6275Z" fill="#FFFBF2"/>
</svg>
