<svg width="23" height="26" viewBox="0 0 23 26" fill="none" xmlns="http://www.w3.org/2000/svg">
<path d="M22.5219 13.3127C22.5219 12.7604 22.0742 12.3127 21.5219 12.3127C20.9696 12.3127 20.5219 12.7604 20.5219 13.3127H22.5219ZM3.05236 18.9823C2.50008 18.9823 2.05236 19.43 2.05236 19.9823C2.05236 20.5346 2.50008 20.9823 3.05236 20.9823V18.9823ZM6.83752 15.5591C7.22804 15.1686 7.22804 14.5354 6.83752 14.1449C6.44699 13.7544 5.81383 13.7544 5.4233 14.1449L6.83752 15.5591ZM1.74528 19.2371L1.03817 18.53L1.03817 18.53L1.74528 19.2371ZM1.78342 20.6875L1.11446 21.4308L1.11446 21.4308L1.78342 20.6875ZM5.46145 25.3431C5.87196 25.7126 6.50425 25.6793 6.87371 25.2688C7.24316 24.8583 7.20989 24.226 6.79938 23.8565L5.46145 25.3431ZM0 12.2871C-4.82823e-08 12.8394 0.447715 13.2871 1 13.2871C1.55228 13.2871 2 12.8394 2 12.2871L0 12.2871ZM7.66957 5.61755L7.66957 6.61755L7.66957 5.61755ZM19.4696 6.61755C20.0218 6.61755 20.4696 6.16983 20.4696 5.61755C20.4696 5.06526 20.0218 4.61755 19.4696 4.61755L19.4696 6.61755ZM15.6844 10.0407C15.2939 10.4312 15.2939 11.0644 15.6844 11.4549C16.0749 11.8455 16.7081 11.8455 17.0986 11.4549L15.6844 10.0407ZM20.7766 6.36269L21.4838 7.0698L21.4838 7.0698L20.7766 6.36269ZM20.7385 4.91229L20.0695 5.65559L20.7385 4.91229ZM17.0605 0.256706C16.65 -0.112753 16.0177 -0.0794748 15.6482 0.331035C15.2788 0.741545 15.312 1.37384 15.7226 1.74329L17.0605 0.256706ZM20.5219 13.3127C20.5219 14.5491 19.9111 15.9814 18.8437 17.1169C17.7844 18.2438 16.3667 18.9823 14.8524 18.9823V20.9823C17.0319 20.9823 18.949 19.9251 20.301 18.4868C21.6449 17.0571 22.5219 15.1546 22.5219 13.3127H20.5219ZM14.8524 18.9823H3.05236V20.9823H14.8524V18.9823ZM5.4233 14.1449L1.03817 18.53L2.45239 19.9442L6.83752 15.5591L5.4233 14.1449ZM1.11446 21.4308L5.46145 25.3431L6.79938 23.8565L2.45238 19.9442L1.11446 21.4308ZM1.03817 18.53C0.227923 19.3403 0.262739 20.6643 1.11446 21.4308L2.45239 19.9442L2.45239 19.9442L1.03817 18.53ZM2 12.2871C2 11.0507 2.61079 9.61843 3.67819 8.48289C4.73748 7.35599 6.15518 6.61755 7.66957 6.61755L7.66957 4.61755C5.49004 4.61755 3.57295 5.67476 2.22094 7.11307C0.877036 8.54276 1.61019e-07 10.4453 0 12.2871L2 12.2871ZM7.66957 6.61755L19.4696 6.61755L19.4696 4.61755L7.66957 4.61755L7.66957 6.61755ZM17.0986 11.4549L21.4838 7.0698L20.0695 5.65559L15.6844 10.0407L17.0986 11.4549ZM21.4075 4.169L17.0605 0.256706L15.7226 1.74329L20.0695 5.65559L21.4075 4.169ZM21.4838 7.0698C22.294 6.25955 22.2592 4.93554 21.4075 4.169L20.0695 5.65559L20.0695 5.65559L21.4838 7.0698Z" fill="#403021"/>
</svg>
